<svg xmlns="http://www.w3.org/2000/svg" height="40" viewBox="0 -960 960 960" width="40"><path d="m790.667-125.333-260-260.001L580-434.667l260 260-49.333 49.334Zm-562.001-40.001Q173.333-224 146.667-296 120-368 120-442.667q0-78 29-152T237.333-728q59.334-59.333 133.834-88.5t152.5-29.167q74.666 0 146.499 26.833Q742-792 800-736.667L228.666-165.334Zm4.667-99.999 64-64.667q-16-21.667-31.5-46-15.5-24.334-28.5-50.667-13-26.334-22-54-9-27.667-13.333-56.001-21.667 69-12.834 140.001 8.834 71 44.167 131.334Zm115.333-113.334 238.001-240q-45-35-91.167-55.5T408-701.5q-41.334-6.834-73.834-.834T284-678.667q-17.667 18-22.667 50.5t2.5 73q7.5 40.5 28.667 85.834 21.166 45.333 56.166 90.666ZM635.333-668 702-732.001q-61.667-38.666-133-46.666-71.334-8-140.334 15.333Q455.999-759 482.999-750t53.334 21.166q26.333 12.167 51.167 27.667 24.833 15.5 47.833 33.167Z"/></svg>