<svg xmlns="http://www.w3.org/2000/svg" height="40" viewBox="0 -960 960 960" width="40"><path d="M295.334-80v-152.666H0l177.334-262.668h-88L360-880l120 170.667L600-880l270.666 384.666h-87.333L960-232.666H665.333V-80H535.334v-152.666H425.333V-80H295.334Zm381-219.333h158.333L657-562h81.667L600-759.334 523-649l107.666 153.666h-87.333l133.001 196.001Zm-550.335 0h468.668L417-562h81.667L360-759.334 221.333-562h82.334L125.999-299.333Zm0 0h177.668-82.334 277.334H417h177.667-468.668Zm550.335 0H543.333h87.333H523h215.667H657h177.667-158.333Zm-141 66.667h129.999-129.999Zm185.666 0Z"/></svg>