<svg xmlns="http://www.w3.org/2000/svg" height="40" viewBox="0 -960 960 960" width="40"><path d="M266.666-120q-27.5 0-47.083-19.583T200-186.666v-460.001q0-30.25 21.542-51.791Q243.083-720 273.333-720H360v-113.334q0-19.444 13.611-33.055T406.666-880h146.668q19.444 0 33.055 13.611T600-833.334V-720h93.334q27.5 0 47.083 19.583T760-653.334v466.668q0 27.5-19.583 47.083T693.334-120q0 17-11.5 28.5t-28.5 11.5q-17 0-28.5-11.5t-11.5-28.5H346.666q0 17-11.5 28.5t-28.5 11.5q-17 0-28.5-11.5t-11.5-28.5Zm0-66.666h426.668v-466.668H266.666v466.668ZM326.667-240h46.666v-360h-46.666v360Zm130 0h46.666v-360h-46.666v360Zm130 0h46.666v-360h-46.666v360ZM480-420Zm-73.334-300h146.668v-113.334H406.666V-720Z"/></svg>