<svg xmlns="http://www.w3.org/2000/svg" height="40" viewBox="0 -960 960 960" width="40"><path d="m622-288.667 48.667-48.666-155.334-156v-195.334h-66.666v222l173.333 178ZM480-80q-82.333 0-155.333-31.5t-127.334-85.833Q143-251.667 111.5-324.667T80-480q0-82.333 31.5-155.333t85.833-127.334Q251.667-817 324.667-848.5T480-880q82.333 0 155.333 31.5t127.334 85.833Q817-708.333 848.5-635.333T880-480q0 82.333-31.5 155.333t-85.833 127.334Q708.333-143 635.333-111.5T480-80Zm0-400Zm0 333.334q137.667 0 235.5-97.834 97.834-97.833 97.834-235.5T715.5-715.5q-97.833-97.834-235.5-97.834T244.5-715.5q-97.834 97.833-97.834 235.5T244.5-244.5q97.833 97.834 235.5 97.834Z"/></svg>