<svg xmlns="http://www.w3.org/2000/svg" height="40" viewBox="0 -960 960 960" width="40"><path d="M158.666-200q-42.333 0-66-28.833Q69-257.666 75.333-304.666l46-323.334q8.334-55.333 50.834-93.667Q214.666-760 270-760h420.667Q746-760 788.5-721.667 831-683.333 839.333-628l45.334 323.334q6.333 47-17.333 75.833-23.667 28.833-66 28.833-22.333 0-39-7.5t-29-19.833l-99.333-99.334H325.999l-99.333 99.334q-12.333 12.333-29 19.833-16.667 7.5-39 7.5Zm17.333-71.333 122.001-122h364l122.001 122q4 4 17.333 8 9.667 0 14.833-8.167 5.167-8.166 3.167-17.833L772.667-618q-4.667-33-28.333-54.167-23.667-21.167-53.667-21.167H269.333q-30 0-53.667 21.167Q192-651 187.333-618l-46.667 328.667q-2 9.667 3.167 17.833 5.166 8.167 14.833 8.167 5.333 0 17.333-8ZM693.334-440q16.333 0 28.166-11.833 11.834-11.834 11.834-28.167 0-16.333-11.834-28.167Q709.667-520 693.334-520q-16.334 0-28.167 11.833-11.833 11.834-11.833 28.167 0 16.333 11.833 28.167Q677-440 693.334-440ZM610-566.667q16.334 0 28.167-11.833Q650-590.334 650-606.667q0-16.333-11.833-28.166-11.833-11.834-28.167-11.834-16.333 0-28.166 11.834Q570-623 570-606.667t11.834 28.167q11.833 11.833 28.166 11.833ZM303.333-443.333h53.333v-73.334H430V-570h-73.334v-73.333h-53.333V-570H230v53.333h73.333v73.334ZM480-478.667Z"/></svg>