<svg xmlns="http://www.w3.org/2000/svg" height="40" viewBox="0 -960 960 960" width="40"><path d="M446.667-766.667V-920h66.666v153.333h-66.666ZM706-659.334l-46.333-46.333 108-109.666 46.666 47.666L706-659.334Zm60.667 212.667v-66.666H920v66.666H766.667ZM446.667-40v-153.333h66.666V-40h-66.666ZM253.333-660.667l-108-107 47-46.666L300.666-706l-47.333 45.333ZM768-145.333l-108.333-109L705-299.666l110 105.999-47 48.334ZM40-446.667v-66.666h153.333v66.666H40Zm153 301.334-47.333-47L253-299.666l24.333 22.333L301.666-254 193-145.333ZM480-240q-100 0-170-70t-70-170q0-100 70-170t170-70q100 0 170 70t70 170q0 100-70 170t-170 70Zm0-66.666q72 0 122.667-50.667T653.334-480q0-72-50.667-122.667T480-653.334q-72 0-122.667 50.667T306.666-480q0 72 50.667 122.667T480-306.666ZM480-480Z"/></svg>