<svg xmlns="http://www.w3.org/2000/svg" height="24" viewBox="0 -960 960 960" width="24" fill="hsla(23, 22%, 27%, 1)"><path d="M377.696-292.087 480-394.391l102.304 102.304 65.609-65.609L545.609-460l102.304-102.304-65.609-65.609L480-525.609 377.696-627.913l-65.609 65.609L414.391-460 312.087-357.696l65.609 65.609ZM273.782-100.782q-44.305 0-75.153-30.848-30.848-30.848-30.848-75.153v-506.999H114.78v-106.002h232.219v-53H611.87v53h233.35v106.002h-53.001v506.999q0 44.305-30.848 75.153-30.848 30.848-75.153 30.848H273.782Zm412.436-613H273.782v506.999h412.436v-506.999Zm-412.436 0v506.999-506.999Z"/></svg>