<svg xmlns="http://www.w3.org/2000/svg" height="40" viewBox="0 -960 960 960" width="40"><path d="M480-80q-33.667 0-57.167-23.5t-23.5-57.167h161.334q0 33.667-23.5 57.167T480-80ZM318.667-215.334V-282h322.666v66.666H318.667ZM325.333-336q-67-42.334-106.166-108.334-39.167-66-39.167-147 0-123 88.5-211.5t211.5-88.5q123 0 211.5 88.5t88.5 211.5q0 81-38.833 147-38.834 66-106.5 108.334H325.333ZM348-402.667h264.667q47-32 73.833-81.666Q713.334-534 713.334-591.334q0-96.666-68.334-165-68.333-68.333-165-68.333t-165 68.333q-68.334 68.334-68.334 165 0 57.334 26.834 107.001 26.833 49.666 74.5 81.666Zm132 0Z"/></svg>