<svg xmlns="http://www.w3.org/2000/svg" height="40" viewBox="0 -960 960 960" width="40"><path d="M186.666-120q-27 0-46.833-19.833T120-186.666v-586.668q0-27 19.833-46.833T186.666-840h586.668q27 0 46.833 19.833T840-773.334v586.668q0 27-19.833 46.833T773.334-120H186.666Zm42-321.666 168.001-168L563.333-443l167.334-167.333 42.667 42.667v-205.668H186.666v289.668l42 42Zm-42 255h586.668v-286.668L730.667-516 563.333-348.667 396.667-515.334 228.666-347.333l-42-42v202.667Zm0 0v-286.668 66.667V-773.334v586.668Z"/></svg>