<svg width="32" height="32" viewBox="0 0 32 32" xmlns="http://www.w3.org/2000/svg" fill="hsla(23, 22%, 27%, 1)">
    <path id="search_2"
          d="M25.2 26.7777L20.1556 21.7333C19.4889 22.2963 18.7151 22.737 17.8342 23.0555C16.9534 23.374 16.016 23.5333 15.0222 23.5333C12.6124 23.5333 10.5729 22.6981 8.90376 21.0277C7.23458 19.3574 6.39999 17.3333 6.39999 14.9555C6.39999 12.5778 7.23518 10.5537 8.90556 8.88331C10.5759 7.21294 12.6037 6.37775 14.9889 6.37775C17.3741 6.37775 19.3981 7.21294 21.0611 8.88331C22.7241 10.5537 23.5556 12.5789 23.5556 14.9589C23.5556 15.9196 23.4 16.8407 23.0889 17.7222C22.7778 18.6037 22.3259 19.4148 21.7333 20.1555L26.8 25.1778L25.2 26.7777ZM15 21.3111C16.7593 21.3111 18.2546 20.6907 19.4861 19.45C20.7176 18.2092 21.3333 16.7111 21.3333 14.9555C21.3333 13.2 20.7176 11.7018 19.4861 10.4611C18.2546 9.22035 16.7593 8.59998 15 8.59998C13.2284 8.59998 11.7225 9.22035 10.4824 10.4611C9.24226 11.7018 8.62219 13.2 8.62219 14.9555C8.62219 16.7111 9.24226 18.2092 10.4824 19.45C11.7225 20.6907 13.2284 21.3111 15 21.3111Z"/>
</svg>
